<?xml version="1.0" encoding="utf-8"?>
<!-- Generator: Adobe Illustrator 15.1.0, SVG Export Plug-In . SVG Version: 6.00 Build 0)  -->
<!DOCTYPE svg PUBLIC "-//W3C//DTD SVG 1.1//EN" "http://www.w3.org/Graphics/SVG/1.1/DTD/svg11.dtd">
<svg version="1.1" id="Layer_1" xmlns="http://www.w3.org/2000/svg" xmlns:xlink="http://www.w3.org/1999/xlink" x="0px" y="0px"
	 width="24px" height="16px" viewBox="0 0 24 16" enable-background="new 0 0 24 16" xml:space="preserve">
<path fill="#F1592B" d="M12-0.001C6.666-0.001,2.11,3.316,0.265,8C2.11,12.684,6.666,16.002,12,16.002S21.89,12.684,23.735,8
	C21.89,3.316,17.334-0.001,12-0.001z M12,13.334c-2.944,0-5.334-2.391-5.334-5.334c0-2.944,2.39-5.334,5.334-5.334
	S17.334,5.056,17.334,8C17.334,10.943,14.944,13.334,12,13.334z M12,4.799c-1.771,0-3.201,1.43-3.201,3.201
	c0,1.771,1.43,3.201,3.201,3.201c1.771,0,3.201-1.43,3.201-3.201C15.201,6.229,13.771,4.799,12,4.799z"/>
</svg>
